<mxfile host="app.diagrams.net" modified="2021-04-02T09:04:40.475Z" agent="5.0 (Windows NT 6.1; Win64; x64) AppleWebKit/537.36 (KHTML, like Gecko) Chrome/78.0.3904.87 Safari/537.36" etag="HAZlcZPf1NHg7ZH8prup" version="14.5.6" type="github">
  <diagram id="NWEgdLzTNcCdse6CF6So" name="第 1 页">
    <mxGraphModel dx="1102" dy="614" grid="1" gridSize="10" guides="1" tooltips="1" connect="1" arrows="1" fold="1" page="1" pageScale="1" pageWidth="827" pageHeight="1169" math="0" shadow="0">
      <root>
        <mxCell id="0" />
        <mxCell id="1" parent="0" />
        <mxCell id="CSGc5qnouwRxRaY-37hw-4" style="orthogonalLoop=1;jettySize=auto;html=1;exitX=0.5;exitY=0;exitDx=0;exitDy=0;entryX=0;entryY=0.5;entryDx=0;entryDy=0;rounded=0;" parent="1" source="CSGc5qnouwRxRaY-37hw-2" target="CSGc5qnouwRxRaY-37hw-3" edge="1">
          <mxGeometry relative="1" as="geometry" />
        </mxCell>
        <mxCell id="CSGc5qnouwRxRaY-37hw-5" value="O&lt;sub&gt;2,&lt;/sub&gt;常温" style="edgeLabel;html=1;align=center;verticalAlign=middle;resizable=0;points=[];" parent="CSGc5qnouwRxRaY-37hw-4" vertex="1" connectable="0">
          <mxGeometry x="-0.01" y="3" relative="1" as="geometry">
            <mxPoint x="1.5299999999999976" y="3" as="offset" />
          </mxGeometry>
        </mxCell>
        <mxCell id="CSGc5qnouwRxRaY-37hw-2" value="Na" style="text;html=1;strokeColor=none;fillColor=none;align=center;verticalAlign=middle;whiteSpace=wrap;rounded=0;" parent="1" vertex="1">
          <mxGeometry x="80" y="170" width="40" height="20" as="geometry" />
        </mxCell>
        <mxCell id="CSGc5qnouwRxRaY-37hw-8" style="edgeStyle=none;rounded=0;orthogonalLoop=1;jettySize=auto;html=1;exitX=1;exitY=0.75;exitDx=0;exitDy=0;entryX=0.5;entryY=0;entryDx=0;entryDy=0;" parent="1" source="CSGc5qnouwRxRaY-37hw-3" target="CSGc5qnouwRxRaY-37hw-6" edge="1">
          <mxGeometry relative="1" as="geometry" />
        </mxCell>
        <mxCell id="CSGc5qnouwRxRaY-37hw-9" value="H&lt;sub&gt;2&lt;/sub&gt;O" style="edgeLabel;html=1;align=center;verticalAlign=middle;resizable=0;points=[];" parent="CSGc5qnouwRxRaY-37hw-8" vertex="1" connectable="0">
          <mxGeometry x="-0.3956" y="-1" relative="1" as="geometry">
            <mxPoint x="12.56" y="0.16" as="offset" />
          </mxGeometry>
        </mxCell>
        <mxCell id="7AssjnRXzXRhhfTUIeLp-4" style="rounded=0;orthogonalLoop=1;jettySize=auto;html=1;exitX=1;exitY=0.25;exitDx=0;exitDy=0;entryX=0.5;entryY=0;entryDx=0;entryDy=0;edgeStyle=orthogonalEdgeStyle;" edge="1" parent="1" source="CSGc5qnouwRxRaY-37hw-3" target="CSGc5qnouwRxRaY-37hw-10">
          <mxGeometry relative="1" as="geometry" />
        </mxCell>
        <mxCell id="7AssjnRXzXRhhfTUIeLp-7" value="CO&lt;sub&gt;2&lt;/sub&gt;" style="edgeLabel;html=1;align=center;verticalAlign=middle;resizable=0;points=[];" vertex="1" connectable="0" parent="7AssjnRXzXRhhfTUIeLp-4">
          <mxGeometry x="0.0154" y="1" relative="1" as="geometry">
            <mxPoint y="-9" as="offset" />
          </mxGeometry>
        </mxCell>
        <mxCell id="CSGc5qnouwRxRaY-37hw-3" value="Na&lt;sub&gt;2&lt;/sub&gt;O" style="text;html=1;strokeColor=none;fillColor=none;align=center;verticalAlign=middle;whiteSpace=wrap;rounded=0;" parent="1" vertex="1">
          <mxGeometry x="160" y="130" width="40" height="20" as="geometry" />
        </mxCell>
        <mxCell id="CSGc5qnouwRxRaY-37hw-11" style="edgeStyle=none;rounded=0;orthogonalLoop=1;jettySize=auto;html=1;exitX=1;exitY=0.25;exitDx=0;exitDy=0;entryX=0;entryY=0.25;entryDx=0;entryDy=0;" parent="1" source="CSGc5qnouwRxRaY-37hw-6" target="CSGc5qnouwRxRaY-37hw-10" edge="1">
          <mxGeometry relative="1" as="geometry" />
        </mxCell>
        <mxCell id="CSGc5qnouwRxRaY-37hw-14" value="CO&lt;sub&gt;2&lt;/sub&gt;,少" style="edgeLabel;html=1;align=center;verticalAlign=middle;resizable=0;points=[];" parent="CSGc5qnouwRxRaY-37hw-11" vertex="1" connectable="0">
          <mxGeometry x="-0.1611" y="-1" relative="1" as="geometry">
            <mxPoint x="10" y="-11" as="offset" />
          </mxGeometry>
        </mxCell>
        <mxCell id="CSGc5qnouwRxRaY-37hw-6" value="NaOH" style="text;html=1;strokeColor=none;fillColor=none;align=center;verticalAlign=middle;whiteSpace=wrap;rounded=0;" parent="1" vertex="1">
          <mxGeometry x="240" y="170" width="40" height="20" as="geometry" />
        </mxCell>
        <mxCell id="CSGc5qnouwRxRaY-37hw-12" style="edgeStyle=none;rounded=0;orthogonalLoop=1;jettySize=auto;html=1;exitX=0;exitY=0.75;exitDx=0;exitDy=0;entryX=1;entryY=0.75;entryDx=0;entryDy=0;" parent="1" source="CSGc5qnouwRxRaY-37hw-10" target="CSGc5qnouwRxRaY-37hw-6" edge="1">
          <mxGeometry relative="1" as="geometry" />
        </mxCell>
        <mxCell id="CSGc5qnouwRxRaY-37hw-15" value="Ca(OH)&lt;sub&gt;2&lt;/sub&gt;" style="edgeLabel;html=1;align=center;verticalAlign=middle;resizable=0;points=[];" parent="CSGc5qnouwRxRaY-37hw-12" vertex="1" connectable="0">
          <mxGeometry x="0.1889" y="1" relative="1" as="geometry">
            <mxPoint x="11.67" y="9" as="offset" />
          </mxGeometry>
        </mxCell>
        <mxCell id="CSGc5qnouwRxRaY-37hw-10" value="Na&lt;sub&gt;2&lt;/sub&gt;CO&lt;sub&gt;3&lt;/sub&gt;" style="text;html=1;strokeColor=none;fillColor=none;align=center;verticalAlign=middle;whiteSpace=wrap;rounded=0;" parent="1" vertex="1">
          <mxGeometry x="400" y="170" width="50" height="20" as="geometry" />
        </mxCell>
      </root>
    </mxGraphModel>
  </diagram>
</mxfile>
